<?xml version="1.0" encoding="UTF-8" standalone="no"?>
<svg
   id="Faceplate_Template_DO_NOT_PRINT_"
   data-name="Faceplate Template (DO NOT PRINT)"
   width="8.78in"
   height="4.151in"
   viewBox="0 0 632.146 298.882"
   version="1.1"
   sodipodi:docname="boppo_tablet_no_outlines_grey_circles.svg"
   inkscape:version="1.4.4 (dcaf3e7d9e, 2026-05-05)"
   xmlns:inkscape="http://www.inkscape.org/namespaces/inkscape"
   xmlns:sodipodi="http://sodipodi.sourceforge.net/DTD/sodipodi-0.dtd"
   xmlns="http://www.w3.org/2000/svg"
   xmlns:svg="http://www.w3.org/2000/svg">
  <defs
     id="defs51" />
  <sodipodi:namedview
     id="namedview51"
     pagecolor="#ffffff"
     bordercolor="#000000"
     borderopacity="0.25"
     inkscape:showpageshadow="2"
     inkscape:pageopacity="0.0"
     inkscape:pagecheckerboard="0"
     inkscape:deskcolor="#d1d1d1"
     inkscape:document-units="in"
     showgrid="false"
     inkscape:zoom="1.2215359"
     inkscape:cx="354.06245"
     inkscape:cy="97.418338"
     inkscape:window-width="1920"
     inkscape:window-height="1123"
     inkscape:window-x="0"
     inkscape:window-y="0"
     inkscape:window-maximized="1"
     inkscape:current-layer="g51" />
  <g
     id="g2"
     transform="rotate(180,318.0865,149.8935)">
    <path
       d="m 316.092,286.964 c -74.938,0 -209.457,-2.353 -230.963,-4.467 C 70.71,281.4 54.508,273.667 42.86,262.316 28.833,248.649 20.932,231.719 20.612,214.647 19.827,172.807 19.827,130.378 20.612,88.539 20.944,70.868 28.025,54.01 40.55,41.07 52.303,28.928 68.123,21.21 84.035,19.834 v -0.031 c 0,0 0.609,-0.019 0.609,-0.019 l 0.597,-0.046 0.002,0.027 c 76.898,-2.338 155.23,-3.522 232.843,-3.522 77.613,0 156.344,1.19 233.427,3.54 0.283,0.017 26.891,1.772 45.465,22.946 8.432,9.611 18.164,23.505 18.583,45.81 0.785,41.84 0.785,84.269 0,126.108 -0.323,17.23 -8.071,34.674 -21.257,47.859 -13.069,13.068 -30.125,20.686 -46.793,20.896 -78.602,2.396 -154.304,3.561 -231.421,3.561 z"
       fill="#8b2680"
       id="path1" />
  </g>
  <g
     id="g4"
     transform="rotate(180,318.0865,149.8935)">
    <path
       d="m 317.41,278.736 c -75.792,0 -152.31,-1.114 -227.427,-3.311 -34.84,-1.02 -62.676,-29.708 -63.373,-65.311 -0.764,-39.134 -0.764,-78.817 0,-117.95 C 27.307,56.56 55.143,27.872 89.983,26.852 165.09,24.655 241.608,23.54 317.41,23.54 c 75.802,0 152.319,1.114 227.428,3.312 34.839,1.02 62.676,29.708 63.373,65.312 0.764,39.133 0.764,78.816 0,117.95 -0.697,35.603 -28.534,64.291 -63.373,65.311 -75.117,2.196 -151.635,3.311 -227.427,3.311 z"
       fill="#ffffff"
       id="path3" />
  </g>
  <g
     id="g25"
     transform="rotate(180,318.0865,149.8935)">
    <ellipse
       cx="419.017"
       cy="19.955999"
       rx="1.658"
       ry="3.8959999"
       transform="rotate(-88.714,419.0182,19.954177)"
       fill="#231f20"
       id="ellipse5" />
    <ellipse
       cx="431.33301"
       cy="20.232"
       rx="1.658"
       ry="3.8959999"
       transform="rotate(-88.714,431.33453,20.231163)"
       fill="#231f20"
       id="ellipse6" />
    <ellipse
       cx="442.491"
       cy="20.483"
       rx="1.658"
       ry="3.8959999"
       transform="rotate(-88.714,442.49292,20.481191)"
       fill="#231f20"
       id="ellipse7" />
    <ellipse
       cx="454.12299"
       cy="20.743999"
       rx="1.658"
       ry="3.8959999"
       transform="rotate(-88.714,454.12481,20.742089)"
       fill="#231f20"
       id="ellipse8" />
    <ellipse
       cx="465.492"
       cy="20.999001"
       rx="1.658"
       ry="3.8959999"
       transform="rotate(-88.714,465.49314,20.997347)"
       fill="#231f20"
       id="ellipse9" />
    <ellipse
       cx="477.51999"
       cy="21.268999"
       rx="1.658"
       ry="3.8959999"
       transform="rotate(-88.714,477.52214,21.267443)"
       fill="#231f20"
       id="ellipse10" />
    <ellipse
       cx="488.17599"
       cy="21.507999"
       rx="1.658"
       ry="3.8959999"
       transform="rotate(-88.714,488.17821,21.50642)"
       fill="#231f20"
       id="ellipse11" />
    <ellipse
       cx="499.17599"
       cy="21.754999"
       rx="1.658"
       ry="3.8959999"
       transform="rotate(-88.714,499.17777,21.753173)"
       fill="#231f20"
       id="ellipse12" />
    <ellipse
       cx="511.08701"
       cy="22.021999"
       rx="1.658"
       ry="3.8959999"
       transform="rotate(-88.714,511.08839,22.020552)"
       fill="#231f20"
       id="ellipse13" />
    <ellipse
       cx="522.16199"
       cy="22.271"
       rx="1.658"
       ry="3.8959999"
       transform="rotate(-88.714,522.16433,22.268977)"
       fill="#231f20"
       id="ellipse14" />
    <g
       id="g24">
      <ellipse
         cx="419.953"
         cy="282.76001"
         rx="3.8959999"
         ry="1.658"
         transform="rotate(-0.968,420.12763,282.87928)"
         fill="#231f20"
         id="ellipse15" />
      <ellipse
         cx="431.15302"
         cy="282.57101"
         rx="3.8959999"
         ry="1.658"
         transform="rotate(-0.968,431.31675,282.67784)"
         fill="#231f20"
         id="ellipse16" />
      <ellipse
         cx="443.22198"
         cy="282.367"
         rx="3.8959999"
         ry="1.658"
         transform="rotate(-0.968,443.39369,282.4839)"
         fill="#231f20"
         id="ellipse17" />
      <ellipse
         cx="454.27899"
         cy="282.17999"
         rx="3.8959999"
         ry="1.658"
         transform="rotate(-0.968,454.46443,282.28145)"
         fill="#231f20"
         id="ellipse18" />
      <ellipse
         cx="465.93701"
         cy="281.983"
         rx="3.8959999"
         ry="1.658"
         transform="rotate(-0.968,466.12706,282.08401)"
         fill="#231f20"
         id="ellipse19" />
      <ellipse
         cx="477.05701"
         cy="281.79501"
         rx="3.8959999"
         ry="1.658"
         transform="rotate(-0.968,477.25699,281.88207)"
         fill="#231f20"
         id="ellipse20" />
      <ellipse
         cx="488.534"
         cy="281.63"
         rx="3.8959999"
         ry="1.658"
         transform="rotate(-0.968,488.74154,281.74232)"
         fill="#231f20"
         id="ellipse21" />
      <ellipse
         cx="499.129"
         cy="281.444"
         rx="3.8959999"
         ry="1.658"
         transform="rotate(-0.968,499.33878,281.53587)"
         fill="#231f20"
         id="ellipse22" />
      <ellipse
         cx="509.72101"
         cy="281.24301"
         rx="3.8959999"
         ry="1.658"
         transform="rotate(-0.968,509.93601,281.32943)"
         fill="#231f20"
         id="ellipse23" />
      <ellipse
         cx="520.79797"
         cy="281.056"
         rx="3.8959999"
         ry="1.658"
         transform="rotate(-0.968,521.00625,281.18618)"
         fill="#231f20"
         id="ellipse24" />
    </g>
  </g>
  <g
     id="g26"
     transform="rotate(180,318.0865,149.8935)">
    <path
       d="m 263.558,19.111 c -0.952,0 -1.95,-0.009 -3.002,-0.028 -11.813,-0.218 -19.211,-1.014 -20.296,-2.186 l -0.282,-0.304 0.016,-0.414 c 0.034,-0.886 0.667,-2.684 2.823,-3.146 0.292,-0.062 0.977,-0.21 10.418,-0.21 10.553,0 25.659,0.186 25.811,0.188 1.484,0.128 2.195,0.716 2.543,1.188 0.421,0.571 0.564,1.303 0.401,2.061 l -0.086,0.402 -0.344,0.225 c -0.348,0.228 -3.811,2.225 -18,2.225 z"
       fill="#c175b0"
       id="path25" />
  </g>
  <g
     id="g28"
     transform="rotate(180,318.0865,149.8935)">
    <path
       d="m 318.03,19.275 c -9.297,-0.121 -14.004,-1.231 -14.004,-3.301 v -0.382 l 0.255,-0.285 c 1.445,-1.615 2.723,-2.384 6.081,-2.384 h 40.713 c 4.058,0 4.988,2.827 5.025,2.947 l 0.17,0.543 -0.379,0.423 c -0.365,0.407 -2.863,2.438 -16.259,2.438 H 318.03 Z"
       fill="#c175b0"
       id="path27" />
  </g>
  <g
     id="g30"
     transform="rotate(180,318.0865,149.8935)">
    <path
       d="m 372.662,19.106 c -4.24,0 -8.658,-0.37 -9.267,-3.116 -0.148,-0.736 0.032,-1.447 0.487,-2.003 0.481,-0.589 1.224,-0.94 1.984,-0.94 h 17.576 l 0.076,0.012 c 0.992,0.155 1.702,0.854 1.853,1.82 0.183,1.18 -0.488,2.475 -1.562,3.012 -1.578,0.788 -3.588,1.102 -7.415,1.157 l -1.113,0.021 c -0.802,0.018 -1.696,0.037 -2.619,0.037 z"
       fill="#c175b0"
       id="path29" />
  </g>
  <g
     id="g51">
    <g
       id="g32"
       style="stroke:#a5a5a5;stroke-opacity:1;fill:none;fill-opacity:1">
      <path
         d="M95.713,136.531c-22.585,0-40.96-18.375-40.96-40.96s18.375-40.96,40.96-40.96,40.96,18.375,40.96,40.96-18.375,40.96-40.96,40.96Z"
         fill="#fff"
         id="path31"
         style="stroke:#a5a5a5;stroke-opacity:1;fill:none;fill-opacity:1" />
      <text
         xml:space="preserve"
         style="font-weight:bold;font-size:15.4496px;font-family:Monospace;-inkscape-font-specification:'Monospace, Bold';letter-spacing:-0.135005px;writing-mode:lr-tb;direction:ltr;fill:#303030;fill-opacity:1;stroke:#a5a5a5;stroke-width:2.08807;stroke-linecap:round;stroke-dasharray:none;stroke-opacity:1"
         x="84.272621"
         y="109.87147"
         id="text1"><tspan
           sodipodi:role="line"
           id="tspan1"
           style="font-style:normal;font-variant:normal;font-weight:normal;font-stretch:normal;font-size:40.0013px;font-family:Sans;-inkscape-font-specification:'Sans, Normal';font-variant-ligatures:normal;font-variant-caps:normal;font-variant-numeric:normal;font-variant-east-asian:normal;fill:#303030;fill-opacity:1;stroke:none;stroke-width:2.08807;stroke-dasharray:none"
           x="84.272621"
           y="109.87147">0</tspan></text>
    </g>
    <g
       id="g34"
       style="stroke:#a5a5a5;stroke-width:1.0006634;stroke-dasharray:none;fill:none;fill-opacity:1;stroke-opacity:1">
      <path
         d="M206.264,136.531c-22.585,0-40.96-18.375-40.96-40.96s18.375-40.96,40.96-40.96,40.96,18.375,40.96,40.96-18.375,40.96-40.96,40.96Z"
         fill="#fff"
         id="path33"
         style="stroke:#a5a5a5;stroke-width:1.0006634;stroke-dasharray:none;fill:none;fill-opacity:1;stroke-opacity:1" />
      <text
         xml:space="preserve"
         style="font-weight:bold;font-size:15.4496px;font-family:Monospace;-inkscape-font-specification:'Monospace, Bold';letter-spacing:-0.135005px;writing-mode:lr-tb;direction:ltr;fill:#303030;fill-opacity:1;stroke:#a5a5a5;stroke-width:2.08807;stroke-linecap:round;stroke-dasharray:none;stroke-opacity:1"
         x="197.38371"
         y="109.85148"
         id="text1-3"><tspan
           sodipodi:role="line"
           id="tspan1-8"
           style="font-style:normal;font-variant:normal;font-weight:normal;font-stretch:normal;font-size:40.0013px;font-family:Sans;-inkscape-font-specification:'Sans, Normal';font-variant-ligatures:normal;font-variant-caps:normal;font-variant-numeric:normal;font-variant-east-asian:normal;fill:#303030;fill-opacity:1;stroke:none;stroke-width:2.08807;stroke-dasharray:none"
           x="197.38371"
           y="109.85148">1</tspan></text>
    </g>
    <g
       id="g36"
       style="stroke:#a5a5a5;fill:none;fill-opacity:1;stroke-opacity:1">
      <path
         d="M316.815,136.531c-22.585,0-40.96-18.375-40.96-40.96s18.375-40.96,40.96-40.96,40.961,18.375,40.961,40.96-18.375,40.96-40.961,40.96Z"
         fill="#fff"
         id="path35"
         style="stroke:#a5a5a5;stroke-width:1.0006634;stroke-dasharray:none;fill:none;fill-opacity:1;stroke-opacity:1" />
      <text
         xml:space="preserve"
         style="font-weight:bold;font-size:15.4496px;font-family:Monospace;-inkscape-font-specification:'Monospace, Bold';letter-spacing:-0.135005px;writing-mode:lr-tb;direction:ltr;fill:#303030;fill-opacity:1;stroke:#a5a5a5;stroke-width:2.08807;stroke-linecap:round;stroke-dasharray:none;stroke-opacity:1"
         x="305.45511"
         y="110.05149"
         id="text1-5"><tspan
           sodipodi:role="line"
           id="tspan1-9"
           style="font-style:normal;font-variant:normal;font-weight:normal;font-stretch:normal;font-size:40.0013px;font-family:Sans;-inkscape-font-specification:'Sans, Normal';font-variant-ligatures:normal;font-variant-caps:normal;font-variant-numeric:normal;font-variant-east-asian:normal;fill:#303030;fill-opacity:1;stroke:none;stroke-width:2.08807;stroke-dasharray:none"
           x="305.45511"
           y="110.05149">2</tspan></text>
    </g>
    <g
       id="g38"
       style="stroke:#a5a5a5;stroke-width:1.0006634;stroke-dasharray:none;fill:none;fill-opacity:1;stroke-opacity:1">
      <path
         d="M427.367,136.531c-22.585,0-40.96-18.375-40.96-40.96s18.375-40.96,40.96-40.96,40.96,18.375,40.96,40.96-18.375,40.96-40.96,40.96Z"
         fill="#fff"
         id="path37"
         style="stroke:#a5a5a5;stroke-width:1.0006634;stroke-dasharray:none;fill:none;fill-opacity:1;stroke-opacity:1" />
      <text
         xml:space="preserve"
         style="font-weight:bold;font-size:15.4496px;font-family:Monospace;-inkscape-font-specification:'Monospace, Bold';letter-spacing:-0.135005px;writing-mode:lr-tb;direction:ltr;fill:#303030;fill-opacity:1;stroke:#a5a5a5;stroke-width:2.08807;stroke-linecap:round;stroke-dasharray:none;stroke-opacity:1"
         x="416.16666"
         y="109.85148"
         id="text1-4"><tspan
           sodipodi:role="line"
           id="tspan1-81"
           style="font-style:normal;font-variant:normal;font-weight:normal;font-stretch:normal;font-size:40.0013px;font-family:Sans;-inkscape-font-specification:'Sans, Normal';font-variant-ligatures:normal;font-variant-caps:normal;font-variant-numeric:normal;font-variant-east-asian:normal;fill:#303030;fill-opacity:1;stroke:none;stroke-width:2.08807;stroke-dasharray:none"
           x="416.16666"
           y="109.85148">3</tspan></text>
    </g>
    <g
       id="g40"
       style="stroke:#a5a5a5;stroke-width:1.0006634;stroke-dasharray:none;fill:none;fill-opacity:1;stroke-opacity:1">
      <path
         d="M537.918,136.531c-22.585,0-40.96-18.375-40.96-40.96s18.375-40.96,40.96-40.96,40.96,18.375,40.96,40.96-18.375,40.96-40.96,40.96Z"
         fill="#fff"
         id="path39"
         style="stroke:#a5a5a5;stroke-width:1.0006634;stroke-dasharray:none;fill:none;fill-opacity:1;stroke-opacity:1" />
      <text
         xml:space="preserve"
         style="font-weight:bold;font-size:15.4496px;font-family:Monospace;-inkscape-font-specification:'Monospace, Bold';letter-spacing:-0.135005px;writing-mode:lr-tb;direction:ltr;fill:#303030;fill-opacity:1;stroke:#a5a5a5;stroke-width:2.08807;stroke-linecap:round;stroke-dasharray:none;stroke-opacity:1"
         x="526.45764"
         y="109.93147"
         id="text1-30"><tspan
           sodipodi:role="line"
           id="tspan1-4"
           style="font-style:normal;font-variant:normal;font-weight:normal;font-stretch:normal;font-size:40.0013px;font-family:Sans;-inkscape-font-specification:'Sans, Normal';font-variant-ligatures:normal;font-variant-caps:normal;font-variant-numeric:normal;font-variant-east-asian:normal;fill:#303030;fill-opacity:1;stroke:none;stroke-width:2.08807;stroke-dasharray:none"
           x="526.45764"
           y="109.93147">4</tspan></text>
    </g>
    <g
       id="g42"
       style="stroke:#a5a5a5;stroke-width:1.0006634;stroke-dasharray:none;fill:none;fill-opacity:1;stroke-opacity:1">
      <path
         d="M95.713,247.082c-22.585,0-40.96-18.375-40.96-40.96s18.375-40.96,40.96-40.96,40.96,18.375,40.96,40.96-18.375,40.96-40.96,40.96Z"
         fill="#fff"
         id="path41"
         style="stroke:#a5a5a5;stroke-width:1.0006634;stroke-dasharray:none;fill:none;fill-opacity:1;stroke-opacity:1" />
      <text
         xml:space="preserve"
         style="font-weight:bold;font-size:15.4496px;font-family:Monospace;-inkscape-font-specification:'Monospace, Bold';letter-spacing:-0.135005px;writing-mode:lr-tb;direction:ltr;fill:#303030;fill-opacity:1;stroke:#a5a5a5;stroke-width:2.08807;stroke-linecap:round;stroke-dasharray:none;stroke-opacity:1"
         x="84.152641"
         y="220.20247"
         id="text1-44"><tspan
           sodipodi:role="line"
           id="tspan1-7"
           style="font-style:normal;font-variant:normal;font-weight:normal;font-stretch:normal;font-size:40.0013px;font-family:Sans;-inkscape-font-specification:'Sans, Normal';font-variant-ligatures:normal;font-variant-caps:normal;font-variant-numeric:normal;font-variant-east-asian:normal;fill:#303030;fill-opacity:1;stroke:none;stroke-width:2.08807;stroke-dasharray:none"
           x="84.152641"
           y="220.20247">5</tspan></text>
    </g>
    <g
       id="g44"
       style="stroke:#a5a5a5;stroke-width:1.0006634;stroke-dasharray:none;fill:none;fill-opacity:1;stroke-opacity:1">
      <path
         d="M206.264,247.082c-22.585,0-40.96-18.375-40.96-40.96s18.375-40.96,40.96-40.96,40.96,18.375,40.96,40.96-18.375,40.96-40.96,40.96Z"
         fill="#fff"
         id="path43"
         style="stroke:#a5a5a5;stroke-width:1.0006634;stroke-dasharray:none;fill:none;fill-opacity:1;stroke-opacity:1" />
      <text
         xml:space="preserve"
         style="font-weight:bold;font-size:15.4496px;font-family:Monospace;-inkscape-font-specification:'Monospace, Bold';letter-spacing:-0.135005px;writing-mode:lr-tb;direction:ltr;fill:#303030;fill-opacity:1;stroke:#a5a5a5;stroke-width:2.08807;stroke-linecap:round;stroke-dasharray:none;stroke-opacity:1"
         x="194.66362"
         y="220.40248"
         id="text1-31"><tspan
           sodipodi:role="line"
           id="tspan1-75"
           style="font-style:normal;font-variant:normal;font-weight:normal;font-stretch:normal;font-size:40.0013px;font-family:Sans;-inkscape-font-specification:'Sans, Normal';font-variant-ligatures:normal;font-variant-caps:normal;font-variant-numeric:normal;font-variant-east-asian:normal;fill:#303030;fill-opacity:1;stroke:none;stroke-width:2.08807;stroke-dasharray:none"
           x="194.66362"
           y="220.40248">6</tspan></text>
    </g>
    <g
       id="g46"
       style="stroke:#a5a5a5;stroke-width:1.0006634;stroke-dasharray:none;fill:none;fill-opacity:1;stroke-opacity:1">
      <path
         d="M316.815,247.082c-22.585,0-40.96-18.375-40.96-40.96s18.375-40.96,40.96-40.96,40.961,18.375,40.961,40.96-18.375,40.96-40.961,40.96Z"
         fill="#fff"
         id="path45"
         style="stroke:#a5a5a5;stroke-width:1.0006634;stroke-dasharray:none;fill:none;fill-opacity:1;stroke-opacity:1" />
      <text
         xml:space="preserve"
         style="font-weight:bold;font-size:15.4496px;font-family:Monospace;-inkscape-font-specification:'Monospace, Bold';letter-spacing:-0.135005px;writing-mode:lr-tb;direction:ltr;fill:#303030;fill-opacity:1;stroke:#a5a5a5;stroke-width:2.08807;stroke-linecap:round;stroke-dasharray:none;stroke-opacity:1"
         x="305.4751"
         y="220.40248"
         id="text1-6"><tspan
           sodipodi:role="line"
           id="tspan1-2"
           style="font-style:normal;font-variant:normal;font-weight:normal;font-stretch:normal;font-size:40.0013px;font-family:Sans;-inkscape-font-specification:'Sans, Normal';font-variant-ligatures:normal;font-variant-caps:normal;font-variant-numeric:normal;font-variant-east-asian:normal;fill:#303030;fill-opacity:1;stroke:none;stroke-width:2.08807;stroke-dasharray:none"
           x="305.4751"
           y="220.40248">7</tspan></text>
    </g>
    <g
       id="g48"
       style="stroke:#a5a5a5;stroke-width:1.0006634;stroke-dasharray:none;fill:none;fill-opacity:1;stroke-opacity:1">
      <path
         d="M427.367,247.082c-22.585,0-40.96-18.375-40.96-40.96s18.375-40.96,40.96-40.96,40.96,18.375,40.96,40.96-18.375,40.96-40.96,40.96Z"
         fill="#fff"
         id="path47"
         style="stroke:#a5a5a5;stroke-width:1.0006634;stroke-dasharray:none;fill:none;fill-opacity:1;stroke-opacity:1" />
      <text
         xml:space="preserve"
         style="font-weight:bold;font-size:15.4496px;font-family:Monospace;-inkscape-font-specification:'Monospace, Bold';letter-spacing:-0.135005px;writing-mode:lr-tb;direction:ltr;fill:#303030;fill-opacity:1;stroke:#a5a5a5;stroke-width:2.08807;stroke-linecap:round;stroke-dasharray:none;stroke-opacity:1"
         x="415.94666"
         y="220.40248"
         id="text1-7"><tspan
           sodipodi:role="line"
           id="tspan1-85"
           style="font-style:normal;font-variant:normal;font-weight:normal;font-stretch:normal;font-size:40.0013px;font-family:Sans;-inkscape-font-specification:'Sans, Normal';font-variant-ligatures:normal;font-variant-caps:normal;font-variant-numeric:normal;font-variant-east-asian:normal;fill:#303030;fill-opacity:1;stroke:none;stroke-width:2.08807;stroke-dasharray:none"
           x="415.94666"
           y="220.40248">8</tspan></text>
    </g>
    <g
       id="g50"
       style="stroke:#a5a5a5;stroke-width:1.0006634;stroke-dasharray:none;fill:none;fill-opacity:1;stroke-opacity:1">
      <path
         d="M537.918,247.082c-22.585,0-40.96-18.375-40.96-40.96s18.375-40.96,40.96-40.96,40.96,18.375,40.96,40.96-18.375,40.96-40.96,40.96Z"
         fill="#fff"
         id="path49"
         style="stroke:#a5a5a5;stroke-width:1.0006634;stroke-dasharray:none;fill:none;fill-opacity:1;stroke-opacity:1" />
      <text
         xml:space="preserve"
         style="font-weight:bold;font-size:15.4496px;font-family:Monospace;-inkscape-font-specification:'Monospace, Bold';letter-spacing:-0.135005px;writing-mode:lr-tb;direction:ltr;fill:#303030;fill-opacity:1;stroke:#a5a5a5;stroke-width:2.08807;stroke-linecap:round;stroke-dasharray:none;stroke-opacity:1"
         x="526.51764"
         y="220.40248"
         id="text1-41"><tspan
           sodipodi:role="line"
           id="tspan1-859"
           style="font-style:normal;font-variant:normal;font-weight:normal;font-stretch:normal;font-size:40.0013px;font-family:Sans;-inkscape-font-specification:'Sans, Normal';font-variant-ligatures:normal;font-variant-caps:normal;font-variant-numeric:normal;font-variant-east-asian:normal;fill:#303030;fill-opacity:1;stroke:none;stroke-width:2.08807;stroke-dasharray:none"
           x="526.51764"
           y="220.40248">9</tspan></text>
    </g>
  </g>
</svg>
